<?xml version="1.0" standalone="no"?> <!DOCTYPE svg PUBLIC "-//W3C//DTD SVG 1.0//EN" "http://www.w3.org/TR/2001/REC-SVG-20010904/DTD/svg10.dtd" > <svg xmlns="http://www.w3.org/2000/svg" width="100%" height="100%">
<defs >
<font id="mreavessanot-reg" horiz-adv-x="893" ><font-face
    font-family="MrEavesSanOT"
    units-per-em="2048"
    panose-1="2 11 6 3 6 5 2 2 2 2"
    ascent="1721"
    descent="-553"
    alphabetic="0" />
<missing-glyph horiz-adv-x="1024" />
<glyph unicode=" " glyph-name="space" horiz-adv-x="354" />
<glyph unicode="!" glyph-name="exclam" horiz-adv-x="491" d="M199 328L150 1229H344L293 328H199ZM246 -16Q201 -16 170 15T139 90Q139 135 170 166T246 197Q290 197 321 166T352 90Q352 46 321 15T246 -16Z" />
<glyph unicode="&quot;" glyph-name="quotedbl" horiz-adv-x="806" d="M203 805Q196 900 178 978T147 1100T133 1163Q133 1204 162 1234T231 1264T300 1234T330 1163Q330 1144 316 1101T283 979T258 805H203ZM545 805Q538 900 520 978T489 1100T475 1163Q475 1203
505 1233T573 1264Q613 1264 642 1234T672 1163Q672 1144 658 1101T625 979T600 805H545Z" />
<glyph unicode="#" glyph-name="numbersign" horiz-adv-x="888" d="M143 193L190 463H41L61 580H209L254 844H104L125 961H272L319 1229H430L385 961H584L631 1229H741L696 961H846L823 844H678L631 580H782L760 463H612L565 193H455L502 463H301L254 193H143ZM319
580H520L565 844H367L319 580Z" />
<glyph unicode="$" glyph-name="dollar" horiz-adv-x="976" d="M449 0Q331 8 229 51T80 145L115 289Q166 232 256 185T449 127V582Q286 626 200 714T113 922Q113 1043 204 1132T449 1231V1399H541V1231Q626 1222 710 1190T838 1120L803 999Q755 1033 682 1062T541
1102V711Q718 657 805 570T893 348Q893 196 791 104T541 0V-170H449V0ZM449 1104Q359 1095 309 1047T258 922Q258 805 449 737V1104ZM541 127Q632 138 690 194T748 336Q748 414 701 464T541 553V127Z" />
<glyph unicode="%" glyph-name="percent" horiz-adv-x="1378" d="M334 -37L260 0L1044 1266L1118 1229L334 -37ZM635 952Q635 819 558 732T365 645T173 732T96 952Q96 1083 173 1170T365 1257T557 1170T635 952ZM504 854T504 952T464 1099T365 1149Q304 1149 266
1100T227 952Q227 853 265 804T365 754Q424 754 464 804ZM1280 283Q1280 150 1203 63T1010 -25T818 62T741 283Q741 414 818 501T1010 588T1202 501T1280 283ZM1149 283Q1149 380 1109 429T1010 479Q949 479 911 430T872 283Q872 183 910 134T1010 84Q1070 84 1109
134T1149 283Z" />
<glyph unicode="&amp;" glyph-name="ampersand" horiz-adv-x="1337" d="M465 727Q612 811 661 850Q758 928 758 1014Q758 1079 710 1116T590 1153Q495 1153 441 1099T387 967Q387 858 465 727ZM551 76Q611 76 663 97T748 156Q562 333 408 559Q262 453 262 317Q262
216 343 146T551 76ZM535 -35Q452 -35 377 -13T239 51T141 164T104 324Q104 428 167 505T344 655Q240 836 240 965T341 1179T590 1264Q723 1264 811 1193T899 1014Q899 979 889 946T867 888T827 835T780 790T721 748T660 710T593 672T528 635Q683 422 834 279Q858
323 871 428T883 616H1198V512H1001Q988 311 924 190Q1002 119 1058 94T1174 68Q1207 68 1245 86T1311 139L1348 84Q1308 24 1252 -5T1139 -35Q1054 -35 985 -11T836 76Q718 -35 535 -35Z" />
<glyph unicode="&apos;" glyph-name="quotesingle" horiz-adv-x="464" d="M203 805Q196 900 179 978T148 1100T135 1163Q135 1204 163 1234T231 1264Q271 1264 300 1234T330 1163Q330 1144 316 1101T283 979T258 805H203Z" />
<glyph unicode="(" glyph-name="parenleft" horiz-adv-x="659" d="M567 -227Q158 108 158 604T565 1436L614 1393Q293 1035 293 604Q293 174 614 -184L567 -227Z" />
<glyph unicode=")" glyph-name="parenright" horiz-adv-x="659" d="M94 -227L45 -184Q369 174 369 604Q369 1035 45 1393L96 1436Q502 1101 502 604T94 -227Z" />
<glyph unicode="*" glyph-name="asterisk" horiz-adv-x="796" d="M346 881Q274 916 205 927T111 952Q76 973 64 1005T68 1073Q85 1106 122 1111T193 1096Q216 1082 236 1058T288 998T373 928Q367 1008 342 1073T317 1167Q317 1209 339 1236T399 1264Q437 1264
459 1237T481 1167Q481 1139 457 1074T426 928Q478 963 510 998T563 1057T606 1096Q639 1116 675 1110T731 1073Q750 1040 737 1007T688 952Q665 939 596 928T453 881Q525 846 594 835T688 809Q723 788 735 756T731 688Q714 655 677 650T606 666Q583 679 563 704T511
764T426 834Q432 753 456 688T481 594Q481 553 459 526T399 498Q362 498 340 525T317 594Q317 623 342 688T373 834Q321 799 289 764T236 704T193 666Q159 645 123 650T68 688Q49 721 61 754T111 809Q134 822 203 833T346 881Z" />
<glyph unicode="+" glyph-name="plus" horiz-adv-x="901" d="M395 102V414H84V524H395V836H506V524H817V414H506V102H395Z" />
<glyph unicode="," glyph-name="comma" horiz-adv-x="491" d="M158 -258L113 -213Q172 -150 197 -107T233 -6Q192 -5 165 25T137 98T166 170T238 201Q285 201 318 167T352 68Q352 -11 301 -106T158 -258Z" />
<glyph unicode="-" glyph-name="hyphen" horiz-adv-x="593" d="M90 362V477H504V362H90Z" />
<glyph unicode="." glyph-name="period" horiz-adv-x="491" d="M292 -16T246 -16T168 16T135 94T167 172T246 205T324 173T356 94T324 16Z" />
<glyph unicode="/" glyph-name="slash" horiz-adv-x="675" d="M84 -37L2 -8L592 1266L674 1237L84 -37Z" />
<glyph unicode="0" glyph-name="zero" horiz-adv-x="1148" d="M575 -35Q477 -35 388 0T233 96T127 248T88 442T127 636T232 787T388 884T575 920Q706 920 817 861T994 691T1061 442T995 194T817 24T575 -35ZM575 90Q716 90 810 186T905 442Q905 600 810 697T575
795Q433 795 339 698T244 442Q244 283 338 187T575 90Z" />
<glyph unicode="1" glyph-name="one" horiz-adv-x="557" d="M211 0V733H80V844L367 909V0H211Z" />
<glyph unicode="2" glyph-name="two" horiz-adv-x="999" d="M115 0V115L455 344Q576 426 633 488T690 623Q690 705 631 744T481 784Q314 784 139 647V801Q197 846 293 882T485 918Q644 918 747 840T850 637Q850 531 792 454T629 311L346 137H881V0H115Z" />
<glyph unicode="3" glyph-name="three" horiz-adv-x="976" d="M442 -414Q342 -414 250 -380T98 -293V-139Q173 -209 252 -249T440 -289Q566 -289 644 -207T723 8Q723 128 659 204T473 281T274 201L207 274L647 748H102V885H864V803L489 401Q660 398 769 294T879
6Q879 -183 756 -298T442 -414Z" />
<glyph unicode="4" glyph-name="four" horiz-adv-x="1073" d="M639 -399V0H61V90L698 922H795V127H1018V0H795V-399H639ZM231 127H639V659L231 127Z" />
<glyph unicode="5" glyph-name="five" horiz-adv-x="960" d="M442 -414Q342 -414 250 -380T98 -293V-139Q248 -289 440 -289Q565 -289 644 -203T723 16Q723 136 659 214T473 293Q296 293 223 131L141 182V885H829V748H268V332Q308 373 370 396T498 420Q660 420
769 310T879 16Q879 -174 755 -294T442 -414Z" />
<glyph unicode="6" glyph-name="six" horiz-adv-x="1046" d="M623 1266Q699 1266 773 1243T887 1188V1047Q758 1135 625 1135Q289 1135 268 659Q305 709 393 746T567 784Q738 784 849 666T961 371Q961 198 840 82T545 -35Q503 -35 463 -28T379 -3T296 43T223 116T163
221T124 363T109 545Q109 766 164 925T335 1175T623 1266ZM555 659Q457 659 382 616T266 508Q266 409 283 332T327 210T391 137T462 98T535 88Q656 88 728 165T801 371T736 579T555 659Z" />
<glyph unicode="7" glyph-name="seven" horiz-adv-x="909" d="M197 -399Q249 -147 423 248T670 748H39V885H846V805Q753 675 583 269T369 -399H197Z" />
<glyph unicode="8" glyph-name="eight" horiz-adv-x="1091" d="M737 -35T547 -35T228 67T98 328Q98 460 183 553T410 686Q294 722 233 798T172 973Q172 1098 283 1184T547 1270Q697 1270 808 1184T920 973Q920 875 859 799T682 686Q823 646 908 553T993 328Q993
169 865 67ZM547 745Q658 779 713 838T768 973Q768 1048 704 1100T547 1153Q454 1153 390 1101T326 973Q326 811 547 745ZM426 88T547 88T753 159T838 328Q838 440 764 507T547 614Q403 575 329 508T254 328Q254 231 340 160Z" />
<glyph unicode="9" glyph-name="nine" horiz-adv-x="1046" d="M424 -410Q347 -410 274 -387T160 -332V-190Q286 -279 422 -279Q581 -279 674 -152T778 225Q741 175 653 138T479 100Q309 100 198 219T86 514Q86 686 207 803T502 920Q544 920 584 913T668 888T750
842T823 769T883 664T923 522T938 340Q938 118 883 -48T711 -312T424 -410ZM492 225Q589 225 664 268T780 377Q780 477 763 553T720 675T656 748T585 787T512 797Q391 797 319 720T246 514T311 306T492 225Z" />
<glyph unicode=":" glyph-name="colon" horiz-adv-x="491" d="M246 -16Q201 -16 170 15T139 90Q139 135 170 166T246 197Q290 197 321 166T352 90Q352 46 321 15T246 -16ZM246 483Q201 483 170 514T139 590Q139 634 170 665T246 696Q290 696 321 665T352 590Q352
545 321 514T246 483Z" />
<glyph unicode=";" glyph-name="semicolon" horiz-adv-x="491" d="M246 483Q201 483 170 514T139 590Q139 634 170 665T246 696Q290 696 321 665T352 590Q352 545 321 514T246 483ZM162 -256L119 -213Q176 -152 201 -108T236 -6Q197 -5 170 25T143 94Q143 134
172 163T242 193Q286 193 318 160T350 63Q350 -13 300 -107T162 -256Z" />
<glyph unicode="&lt;" glyph-name="less" horiz-adv-x="911" d="M750 25L115 471L750 915L803 838L303 471L803 104L750 25Z" />
<glyph unicode="=" glyph-name="equal" horiz-adv-x="901" d="M152 543V653H750V543H152ZM152 285V395H750V285H152Z" />
<glyph unicode="&gt;" glyph-name="greater" horiz-adv-x="911" d="M162 25L109 104L608 471L109 838L162 915L797 471L162 25Z" />
<glyph unicode="?" glyph-name="question" horiz-adv-x="888" d="M301 328L285 586L379 631Q541 709 601 779T662 940Q662 1036 593 1085T410 1135Q322 1135 218 1090T51 979V1135Q111 1190 215 1227T422 1264Q501 1264 572 1245T700 1187T790 1087T823 946Q823
815 737 723T498 557L412 516L395 328H301ZM348 -16Q304 -16 273 15T242 90Q242 135 273 166T348 197Q393 197 424 166T455 90Q455 46 424 15T348 -16Z" />
<glyph unicode="@" glyph-name="at" horiz-adv-x="1413" d="M676 88Q735 88 790 143T858 279L913 600Q874 645 797 645Q709 645 642 566T553 362Q530 235 560 162T676 88ZM723 -309Q542 -309 390 -228T150 -2T61 317Q61 463 118 596T273 825T503 979T782 1036Q942
1036 1072 970T1278 780T1354 498Q1354 401 1319 307T1228 145T1105 36T973 -6Q911 -6 879 23T838 98Q802 49 749 18T635 -14Q551 -14 496 37T422 174T422 362Q450 517 561 627T801 737Q872 737 932 702H1047L958 201Q946 136 962 107T1024 78Q1105 78 1182 204T1260
494Q1260 593 1222 676T1120 816T971 904T793 936Q632 936 495 853T277 628T197 324Q197 157 271 30T468 -163T739 -229Q960 -229 1174 -98L1200 -156Q984 -309 723 -309Z" />
<glyph unicode="A" glyph-name="A" horiz-adv-x="1204" d="M20 0L549 1229H655L1184 0H1016L868 344H328L180 0H20ZM383 477H813L598 983L383 477Z" />
<glyph unicode="B" glyph-name="B" horiz-adv-x="1034" d="M139 0V1229H545Q723 1229 812 1139T901 907Q901 839 864 774T772 666Q860 627 913 543T967 360Q967 201 866 101T565 0H139ZM303 137H565Q632 137 680 155T755 207T793 277T805 360T793 443T755 514T681
565T565 584H303V137ZM303 721H545Q651 721 698 774T745 907T698 1039T545 1092H303V721Z" />
<glyph unicode="C" glyph-name="C" horiz-adv-x="1249" d="M733 -27Q600 -27 482 18T274 144T132 347T80 614Q80 807 170 955T407 1179T733 1255Q850 1255 966 1220T1159 1126V956Q981 1118 733 1118Q519 1118 385 981T250 614Q250 387 385 249T733 111Q980 111
1159 272V102Q1082 44 966 9T733 -27Z" />
<glyph unicode="D" glyph-name="D" horiz-adv-x="1284" d="M139 0V1229H520Q660 1229 774 1198T967 1110T1100 977T1179 808T1204 614Q1204 484 1164 375T1042 181T828 48T520 0H139ZM303 143H522Q638 143 728 169T875 238T968 343T1019 471T1034 614Q1034 692
1020 758T969 885T876 990T729 1059T522 1085H303V143Z" />
<glyph unicode="E" glyph-name="E" horiz-adv-x="983" d="M139 0V1229H883V1092H303V717H780V580H303V137H883V0H139Z" />
<glyph unicode="F" glyph-name="F" horiz-adv-x="909" d="M139 0V1229H883V1092H303V717H780V580H303V0H139Z" />
<glyph unicode="G" glyph-name="G" horiz-adv-x="1349" d="M733 -35Q601 -35 482 11T274 140T133 346T80 614Q80 807 170 955T407 1179T733 1255Q850 1255 966 1220T1159 1126V956Q981 1118 733 1118Q519 1118 385 981T250 614Q250 386 385 244T733 102Q921 102
1047 174V453H795V590H1210V94Q1205 92 1159 71T1077 36T983 4T861 -25T733 -35Z" />
<glyph unicode="H" glyph-name="H" horiz-adv-x="1284" d="M139 0V1229H303V717H981V1229H1145V0H981V580H303V0H139Z" />
<glyph unicode="I" glyph-name="I" horiz-adv-x="442" d="M139 0V1229H303V0H139Z" />
<glyph unicode="J" glyph-name="J" horiz-adv-x="442" d="M49 -406Q-6 -406 -47 -387T-109 -344V-227Q-87 -247 -49 -264T18 -281Q84 -281 111 -244T139 -106V1229H303V-125Q303 -252 240 -329T49 -406Z" />
<glyph unicode="K" glyph-name="K" horiz-adv-x="1126" d="M139 0V1229H303V647L872 1229H1061L504 670L1143 0H928L395 567L303 473V0H139Z" />
<glyph unicode="L" glyph-name="L" horiz-adv-x="909" d="M139 0V1229H303V137H883V0H139Z" />
<glyph unicode="M" glyph-name="M" horiz-adv-x="1540" d="M139 0V1229H299L774 209L1249 1229H1401V0H1243V838Q1243 851 1244 876T1246 920L1247 940Q1245 937 1238 918T1220 875T1204 838L821 0H711L328 838Q304 882 285 940L286 920Q287 901 288 876T289 838V0H139Z" />
<glyph unicode="N" glyph-name="N" horiz-adv-x="1253" d="M139 0V1229H233L965 313V1229H1114V0H1020L289 915V0H139Z" />
<glyph unicode="O" glyph-name="O" horiz-adv-x="1464" d="M733 -35Q547 -35 398 48T164 280T80 614Q80 800 164 948T397 1180T733 1264Q918 1264 1067 1181T1300 949T1384 614Q1384 429 1300 281T1067 49T733 -35ZM733 102Q943 102 1078 246T1214 614Q1214 838
1079 982T733 1126Q521 1126 386 982T250 614Q250 391 386 247T733 102Z" />
<glyph unicode="P" glyph-name="P" horiz-adv-x="978" d="M139 0V1229H545Q647 1229 725 1200T851 1118T922 1001T946 858T922 716T851 598T726 517T545 487H303V0H139ZM303 625H545Q611 625 659 645T734 699T772 773T784 858T772 942T734 1017T660 1072T545 1092H303V625Z"
/>
<glyph unicode="Q" glyph-name="Q" horiz-adv-x="1464" d="M1356 -518Q1281 -518 1207 -486T1072 -407T952 -313T825 -234T690 -201Q525 -201 412 -334L332 -268Q363 -209 425 -137T569 -16Q350 33 215 205T80 614Q80 800 164 948T397 1180T733 1264Q918 1264
1067 1181T1300 949T1384 614Q1384 477 1337 359T1210 160T1023 28T795 -35Q676 -45 600 -106Q695 -86 781 -98T930 -139T1057 -209T1171 -285T1280 -346T1395 -371Q1473 -371 1522 -322T1589 -182H1694Q1690 -246 1669 -303T1608 -410T1504 -489T1356 -518ZM733
102Q943 102 1078 246T1214 614Q1214 838 1079 982T733 1126Q521 1126 386 982T250 614Q250 391 386 247T733 102Z" />
<glyph unicode="R" glyph-name="R" horiz-adv-x="1126" d="M985 -14Q769 -14 643 215L481 508H303V0H139V1229H545Q745 1229 845 1128T946 868Q946 727 869 633T649 518L797 268Q850 177 903 142T1028 106Q1060 106 1098 115V0Q1043 -14 985 -14ZM303 645H545Q672
645 728 708T784 868Q784 965 728 1028T545 1092H303V645Z" />
<glyph unicode="S" glyph-name="S" horiz-adv-x="976" d="M485 -27Q347 -27 241 17T76 123L113 274Q268 106 485 106Q597 106 670 165T743 322Q743 418 682 475T453 578Q111 668 111 936Q111 1072 217 1163T506 1255Q605 1255 694 1224T840 1147L803 1014Q738
1061 658 1091T506 1122Q391 1122 328 1073T264 936Q264 865 319 812T512 723Q712 670 804 579T897 336Q897 221 837 137T686 13T485 -27Z" />
<glyph unicode="T" glyph-name="T" horiz-adv-x="1087" d="M461 0V1092H25V1229H1061V1092H625V0H461Z" />
<glyph unicode="U" glyph-name="U" horiz-adv-x="1343" d="M672 -35Q424 -35 282 115T139 567V1229H307V565Q307 334 404 222T676 109T947 221T1044 565V1229H1204V567Q1204 266 1062 116T672 -35Z" />
<glyph unicode="V" glyph-name="V" horiz-adv-x="1204" d="M549 0L20 1229H188L606 250L1024 1229H1184L655 0H549Z" />
<glyph unicode="W" glyph-name="W" horiz-adv-x="1716" d="M444 0L20 1229H188L483 322Q486 310 492 279T500 246Q500 264 520 322L811 1229H913L1204 322L1225 246Q1233 299 1241 322L1536 1229H1696L1272 0H1169L879 842Q876 849 872 864T863 893T858 909Q857
907 854 894T846 865T838 842L547 0H444Z" />
<glyph unicode="X" glyph-name="X" horiz-adv-x="1130" d="M2 0L469 631L27 1229H217L567 748L922 1229H1104L662 629L1128 0H938L563 514L184 0H2Z" />
<glyph unicode="Y" glyph-name="Y" horiz-adv-x="1142" d="M489 0V492L8 1229H186L575 625L965 1229H1135L653 492V0H489Z" />
<glyph unicode="Z" glyph-name="Z" horiz-adv-x="1003" d="M78 0V94L723 1092H78V1229H924V1135L279 137H924V0H78Z" />
<glyph unicode="[" glyph-name="bracketleft" horiz-adv-x="647" d="M227 -180V1389H559V1303H352V-94H559V-180H227Z" />
<glyph unicode="\" glyph-name="backslash" horiz-adv-x="675" d="M590 -37L0 1237L82 1266L672 -8L590 -37Z" />
<glyph unicode="]" glyph-name="bracketright" horiz-adv-x="647" d="M88 -180V-94H297V1303H88V1389H422V-180H88Z" />
<glyph unicode="^" glyph-name="asciicircum" horiz-adv-x="976" d="M123 575L43 629L489 1264L934 629L856 575L489 1075L123 575Z" />
<glyph unicode="_" glyph-name="underscore" horiz-adv-x="712" d="M-12 -90V0H725V-90H-12Z" />
<glyph unicode="`" glyph-name="grave" horiz-adv-x="614" d="M453 827L184 956Q167 965 153 981T139 1018Q139 1043 157 1061T201 1079Q209 1079 217 1077T232 1072T247 1064T259 1055T273 1042T287 1030L479 870L453 827Z" />
<glyph unicode="a" glyph-name="a" horiz-adv-x="813" d="M758 23Q717 -18 651 -18Q527 -18 510 104Q438 38 378 10T254 -18Q177 -18 124 34T70 166Q70 250 130 309T284 397T506 438V475Q506 552 477 584T369 616Q315 616 247 590T119 524V643Q169 675 248 700T393
725Q528 725 591 670T655 475V141Q655 72 702 72Q732 72 758 84V23ZM506 193V350Q213 314 213 180Q213 136 243 114T317 92Q393 92 506 193Z" />
<glyph unicode="b" glyph-name="b" horiz-adv-x="970" d="M881 506T881 350T782 84T537 -27Q371 -27 266 92L217 -23H129V1229L279 1253V610Q324 666 392 695T537 725Q682 725 781 616ZM506 610Q434 610 370 572T279 475V225Q314 164 374 126T506 88Q608 88 669
158T731 348Q731 469 670 539T506 610Z" />
<glyph unicode="c" glyph-name="c" horiz-adv-x="786" d="M711 57Q598 -23 467 -23Q303 -23 197 82T90 350Q90 511 197 616T467 721Q598 721 711 641V516Q618 604 479 604Q374 604 307 535T240 350Q240 234 307 164T479 94Q616 94 711 182V57Z" />
<glyph unicode="d" glyph-name="d" horiz-adv-x="999" d="M946 23Q900 -18 838 -18Q722 -18 696 94Q652 36 583 5T434 -27Q289 -27 190 83T90 350T189 615T434 725Q511 725 579 696T692 610V1229L842 1253V141Q842 72 889 72Q918 72 946 84V23ZM692 225V475Q662
534 599 572T463 610Q362 610 301 539T240 348T301 158T463 88Q535 88 595 126T692 225Z" />
<glyph unicode="e" glyph-name="e" horiz-adv-x="849" d="M758 88Q698 35 619 4T455 -27Q288 -27 187 79T86 350Q86 517 187 621T434 725Q568 725 656 642T745 444Q745 409 735 369H233Q229 333 233 297T255 222T301 156T381 109T498 90Q548 90 606 112T709 168L758
88ZM600 483Q600 538 557 577T436 616Q369 616 317 578T246 467H598Q600 475 600 483Z" />
<glyph unicode="f" glyph-name="f" horiz-adv-x="528" d="M496 600H313V0H164V600H25V698H164V967Q164 1255 412 1255Q450 1255 494 1241V1141Q446 1151 432 1151Q369 1151 341 1114T313 981V698H496V600Z" />
<glyph unicode="g" glyph-name="g" horiz-adv-x="841" d="M397 725Q436 725 516 712T635 698H793V600H657Q682 572 697 529T713 442Q713 334 632 255T434 162Q326 148 279 125T231 61Q231 42 245 28T288 6T338 -6T395 -14Q599 -39 687 -104T776 -270Q776 -396
673 -471T408 -547Q239 -547 136 -483T33 -330Q33 -269 75 -225T182 -164L238 -193Q166 -226 166 -309Q166 -352 203 -382T294 -425T408 -438Q511 -438 575 -399T639 -301Q639 -238 580 -204T383 -152Q339 -145 309 -139T236 -118T166 -84T120 -31T100 45Q100 91
139 134T242 197Q174 223 127 292T80 442Q80 559 171 642T397 725ZM571 442Q571 523 524 574T397 625Q316 625 269 574T221 442Q221 364 268 313T397 262Q477 262 524 313T571 442Z" />
<glyph unicode="h" glyph-name="h" horiz-adv-x="946" d="M817 0H668V412Q668 604 506 604Q426 604 353 543T279 399V0H129V1229L279 1253V578Q316 639 393 682T555 725Q689 725 753 642T817 420V0Z" />
<glyph unicode="i" glyph-name="i" horiz-adv-x="407" d="M295 1018Q295 980 268 952T203 924Q165 924 138 952T111 1018Q111 1055 138 1082T203 1110Q240 1110 267 1083T295 1018ZM279 0H129V698L279 723V0Z" />
<glyph unicode="j" glyph-name="j" horiz-adv-x="407" d="M295 1018Q295 980 268 952T203 924Q165 924 138 952T111 1018Q111 1055 138 1082T203 1110Q240 1110 267 1083T295 1018ZM279 -319Q279 -420 227 -483T72 -547Q-14 -547 -61 -500V-397Q-44 -413 -16 -425T37
-438Q87 -438 108 -410T129 -305V698L279 723V-319Z" />
<glyph unicode="k" glyph-name="k" horiz-adv-x="813" d="M774 0H590L322 305L279 264V0H129V1229L279 1253V406L602 698H770L422 389L774 0Z" />
<glyph unicode="l" glyph-name="l" horiz-adv-x="436" d="M381 23Q337 -18 274 -18Q129 -18 129 156V1229L279 1253V141Q279 72 326 72Q353 72 381 84V23Z" />
<glyph unicode="m" glyph-name="m" horiz-adv-x="1417" d="M1288 0H1139V414Q1139 513 1104 558T991 604T848 544T782 399V0H633V414Q633 513 599 558T485 604Q407 604 343 544T279 399V0H129V686L254 709L272 578Q310 640 381 682T535 725Q718 725 766 565Q810
634 883 679T1040 725Q1288 725 1288 420V0Z" />
<glyph unicode="n" glyph-name="n" horiz-adv-x="946" d="M817 0H668V412Q668 604 506 604Q426 604 353 543T279 399V0H129V686L254 709L272 578Q309 638 389 681T555 725Q689 725 753 642T817 420V0Z" />
<glyph unicode="o" glyph-name="o" horiz-adv-x="966" d="M887 350Q887 193 770 81T483 -31Q314 -31 197 81T80 350Q80 506 197 617T483 729Q653 729 770 618T887 350ZM737 235T737 350T666 538T483 612Q373 612 301 539T229 350Q229 236 301 161T483 86Q594 86 665 160Z" />
<glyph unicode="p" glyph-name="p" horiz-adv-x="970" d="M881 506T881 350T782 84T537 -27Q460 -27 392 2T279 88V-532H129V686L250 709L266 594Q310 656 383 690T537 725Q682 725 781 616ZM506 610Q434 610 370 572T279 475V225Q314 164 374 126T506 88Q608
88 669 158T731 348Q731 469 670 539T506 610Z" />
<glyph unicode="q" glyph-name="q" horiz-adv-x="970" d="M842 -532H692V88Q647 32 579 3T434 -27Q289 -27 190 82T90 348T189 614T434 725Q600 725 705 606L754 717H842V-532ZM692 225V475Q662 534 599 572T463 610Q362 610 301 539T240 348T301 158T463 88Q535
88 595 126T692 225Z" />
<glyph unicode="r" glyph-name="r" horiz-adv-x="595" d="M545 573Q444 592 362 542T279 406V0H129V686L254 709L272 578Q309 639 384 682T545 725V573Z" />
<glyph unicode="s" glyph-name="s" horiz-adv-x="686" d="M600 203Q600 98 530 36T334 -27Q204 -27 68 51L96 164Q226 84 336 84Q399 84 434 109T469 184Q469 224 434 250T315 297Q205 324 153 380T100 512Q100 603 162 664T350 725Q402 725 457 709T536 680T573
659L547 555Q446 618 350 618Q231 618 231 530Q231 492 262 470T360 430Q600 374 600 203Z" />
<glyph unicode="t" glyph-name="t" horiz-adv-x="573" d="M510 47Q438 -18 332 -18Q156 -18 156 209V600H49V698H156V891L305 915V698H483V600H305V207Q305 147 323 120T387 92Q440 92 489 123L510 47Z" />
<glyph unicode="u" glyph-name="u" horiz-adv-x="974" d="M920 23Q876 -18 813 -18Q686 -18 670 115Q639 61 558 17T391 -27Q257 -27 193 56T129 279V698H279V287Q279 94 440 94Q521 94 594 154T668 299V698H817V141Q817 72 864 72Q890 72 920 84V23Z" />
<glyph unicode="v" glyph-name="v" horiz-adv-x="784" d="M762 698L449 -6H336L23 698H170L393 172L614 698H762Z" />
<glyph unicode="w" glyph-name="w" horiz-adv-x="1249" d="M1225 698L932 -6H819L625 489L430 -6H317L27 698H172L375 176L569 698H682L877 176L1079 698H1225Z" />
<glyph unicode="x" glyph-name="x" horiz-adv-x="831" d="M799 0H627L414 264L199 0H33L334 354L47 698H213L418 446L625 698H784L500 356L799 0Z" />
<glyph unicode="y" glyph-name="y" horiz-adv-x="784" d="M762 698L219 -532H70L319 33L23 698H170L393 172L614 698H762Z" />
<glyph unicode="z" glyph-name="z" horiz-adv-x="733" d="M659 0H61V76L461 590H82V698H651V623L252 109H659V0Z" />
<glyph unicode="{" glyph-name="braceleft" horiz-adv-x="659" d="M537 -227Q490 -200 460 -178T405 -126T367 -68T346 8T335 105T332 233Q332 440 258 511Q225 543 145 570Q120 578 115 580V633Q199 662 219 673Q293 714 317 815Q332 880 332 979Q332 1056 334
1106T345 1202T367 1279T404 1338T459 1390T537 1440L578 1380Q547 1359 526 1339T491 1291T470 1240T458 1171T454 1090T453 983Q453 909 448 855T428 761T398 697T355 653T301 626T233 606Q274 596 300 587T354 559T398 516T428 451T447 358T453 229Q453 158
453 123T458 42T469 -27T491 -78T526 -127T578 -168L537 -227Z" />
<glyph unicode="|" glyph-name="bar" horiz-adv-x="471" d="M184 -197V1405H287V-197H184Z" />
<glyph unicode="}" glyph-name="braceright" horiz-adv-x="659" d="M123 -227L82 -168Q113 -147 134 -127T169 -79T190 -27T202 42T206 123T207 229Q207 317 216 379T241 479T287 543T347 581T426 606Q377 618 347 630T287 668T242 732T217 833T207 983Q207 1055
207 1090T202 1171T191 1240T169 1291T134 1339T82 1380L123 1440Q170 1413 200 1391T255 1339T292 1279T314 1203T325 1106T328 979Q328 773 401 702Q434 670 513 644Q541 634 545 633V580Q461 551 439 539Q365 497 342 392Q328 329 328 233Q328 118 322 53T292
-66T231 -153T123 -227Z" />
<glyph unicode="~" glyph-name="asciitilde" horiz-adv-x="911" d="M596 301Q555 301 498 332T384 395T291 426Q253 426 237 400T205 309H145Q145 425 188 483T311 541Q344 541 387 522T466 479T544 436T616 416Q636 416 650 423T673 448T688 482T702 532H762Q762
417 719 359T596 301Z" />
</font>
</defs>
</svg>
